<svg width="36" height="36" viewBox="0 0 36 36" fill="none" xmlns="http://www.w3.org/2000/svg">
<path fill-rule="evenodd" clip-rule="evenodd" d="M18 5C14.1661 5 10.9272 7.53736 9.86678 11.0233C5.46788 11.3474 2 15.0186 2 19.5C2 24.1635 5.75546 27.9497 10.4073 27.9995C10.4418 27.9999 12.7294 28 12.75 28C13.3023 28 13.75 27.5523 13.75 27C13.75 26.4477 13.3023 26 12.75 26L10.7903 25.9998C10.5662 25.9997 10.4286 25.9996 10.4287 25.9996C6.87185 25.9615 4 23.0661 4 19.5C4 15.9526 6.84191 13.0688 10.3729 13.0012C10.7025 12.9949 11.0336 12.8707 11.2908 12.6292C11.4914 12.4408 11.6241 12.2023 11.6854 11.9512C12.3799 9.10863 14.9449 7 18 7C21.0454 7 23.6039 9.09533 24.3079 11.9243C24.3641 12.15 24.4765 12.3677 24.6458 12.5498C24.9164 12.841 25.2863 12.9932 25.6559 13.0018C29.1735 13.0844 32 15.9623 32 19.5C32 23.0661 29.1282 25.9615 25.5713 25.9996L25.5622 25.9996L25.2097 25.9998L23.25 26C22.6977 26 22.25 26.4477 22.25 27C22.25 27.5523 22.6977 28 23.25 28C23.2706 28 25.5583 27.9999 25.5927 27.9995C30.2446 27.9497 34 24.1635 34 19.5C34 15.0186 30.5322 11.3474 26.1332 11.0233C25.0728 7.5374 21.8339 5 18 5ZM13.0503 18.2929C12.6598 18.6834 12.6598 19.3166 13.0503 19.7071C13.4408 20.0976 14.074 20.0976 14.4645 19.7071L17 17.1716V29C17 29.5523 17.4477 30 18 30C18.5523 30 19 29.5523 19 29V17.1716L21.5356 19.7071C21.9261 20.0976 22.5592 20.0976 22.9498 19.7071C23.3403 19.3166 23.3403 18.6834 22.9498 18.2929L18.7071 14.0502C18.3166 13.6597 17.6834 13.6597 17.2929 14.0502L13.0503 18.2929Z" fill="black"/>
</svg>
