<svg width="24" height="24" viewBox="0 0 24 24" fill="none" xmlns="http://www.w3.org/2000/svg">
<path fill-rule="evenodd" clip-rule="evenodd" d="M20 12C20 16.4183 16.4183 20 12 20C7.58172 20 4 16.4183 4 12C4 7.58172 7.58172 4 12 4C16.4183 4 20 7.58172 20 12ZM22 12C22 17.5228 17.5228 22 12 22C6.47715 22 2 17.5228 2 12C2 6.47715 6.47715 2 12 2C17.5228 2 22 6.47715 22 12ZM11.0262 6.3925C10.1929 6.54875 9.47416 7.00709 8.87 7.7675L10.1512 9.09563C10.5367 8.59563 11.0471 8.34042 11.6825 8.33C11.9012 8.33 12.1148 8.37167 12.3231 8.455C12.8544 8.67375 13.12 9.05917 13.12 9.61125C13.12 10.2154 12.9585 10.6425 12.6356 10.8925C12.3023 11.1321 11.5887 11.2623 10.495 11.2831V14.7206H12.5106V13.0019L12.7762 12.955C12.9533 12.9238 13.1669 12.8404 13.4169 12.705C13.6773 12.5592 13.9377 12.3769 14.1981 12.1581C14.4585 11.9394 14.6773 11.6113 14.8544 11.1738C15.0315 10.7258 15.12 10.2154 15.12 9.6425C15.0992 8.94458 14.9325 8.33 14.62 7.79875C14.0471 6.81959 13.1096 6.33 11.8075 6.33C11.5367 6.33 11.2762 6.35084 11.0262 6.3925ZM10.9169 15.4394C10.5106 15.6685 10.3075 16.0175 10.3075 16.4863C10.3075 16.6738 10.3544 16.856 10.4481 17.0331C10.6565 17.4498 11.0002 17.6581 11.4794 17.6581C11.6877 17.6581 11.8804 17.6113 12.0575 17.5175C12.4637 17.2988 12.6669 16.955 12.6669 16.4863C12.6669 16.2883 12.62 16.0956 12.5262 15.9081C12.2971 15.5019 11.9481 15.2988 11.4794 15.2988C11.2815 15.2988 11.094 15.3456 10.9169 15.4394Z" fill="black"/>
</svg>
