<svg width="24" height="24" viewBox="0 0 24 24" fill="none" xmlns="http://www.w3.org/2000/svg">
<path fill-rule="evenodd" clip-rule="evenodd" d="M9 4C9 2.34315 10.3431 1 12 1C13.6569 1 15 2.34315 15 4V4.67365C17.3649 5.79712 19 8.20762 19 11V12.0278C19 12.6617 19.1876 13.2815 19.5393 13.809L19.8906 14.3359C21.2197 16.3296 19.7905 19 17.3944 19H16C16 21.2091 14.2091 23 12 23C9.79086 23 8 21.2091 8 19H6.60551C4.20942 19 2.78025 16.3296 4.10936 14.3359L4.46065 13.809C4.81231 13.2815 4.99996 12.6617 4.99996 12.0278L4.99996 11C4.99996 8.20759 6.63503 5.79707 9 4.67361V4ZM8 17H16H17.3944C18.1931 17 18.6695 16.1099 18.2265 15.4453L17.8752 14.9184C17.3045 14.0623 17 13.0566 17 12.0278V11C17 8.23858 14.7614 6 12 6C9.23853 6 6.99996 8.23858 6.99996 11V12.0278C6.99996 13.0566 6.69543 14.0623 6.12475 14.9184L5.77346 15.4453C5.33042 16.1099 5.80681 17 6.60551 17H8ZM10 19C10 20.1046 10.8954 21 12 21C13.1046 21 14 20.1046 14 19H10ZM13 4H12H11C11 3.44772 11.4477 3 12 3C12.5523 3 13 3.44772 13 4Z" fill="black"/>
<circle cx="18" cy="6" r="4" fill="#FF2517"/>
</svg>
