<svg width="24" height="24" viewBox="0 0 24 24" fill="none" xmlns="http://www.w3.org/2000/svg">
<path fill-rule="evenodd" clip-rule="evenodd" d="M20 6C20 7.10457 19.1046 8 18 8C16.8954 8 16 7.10457 16 6C16 4.89543 16.8954 4 18 4C19.1046 4 20 4.89543 20 6ZM22 6C22 8.20914 20.2091 10 18 10C15.7909 10 14 8.20914 14 6C14 3.79086 15.7909 2 18 2C20.2091 2 22 3.79086 22 6ZM4 7C4 6.44772 4.44772 6 5 6H12C12.5523 6 13 5.55228 13 5C13 4.44772 12.5523 4 12 4H5C3.34315 4 2 5.34315 2 7V19C2 20.6569 3.34315 22 5 22H17C18.6569 22 20 20.6569 20 19V12C20 11.4477 19.5523 11 19 11C18.4477 11 18 11.4477 18 12V19C18 19.5523 17.5523 20 17 20H5C4.44772 20 4 19.5523 4 19V7ZM6 11C6 10.4477 6.44772 10 7 10H11C11.5523 10 12 10.4477 12 11C12 11.5523 11.5523 12 11 12H7C6.44772 12 6 11.5523 6 11ZM7 14C6.44772 14 6 14.4477 6 15C6 15.5523 6.44772 16 7 16H14C14.5523 16 15 15.5523 15 15C15 14.4477 14.5523 14 14 14H7Z" fill="#1C1C1C"/>
</svg>
