<svg width="24" height="24" viewBox="0 0 24 24" fill="none" xmlns="http://www.w3.org/2000/svg">
<path fill-rule="evenodd" clip-rule="evenodd" d="M11.85 2C6.40632 2 2 6.40556 2 11.85C2 13.525 2.42366 15.1626 3.22972 16.6177L2.05265 20.2729C1.92702 20.6629 2.03029 21.0904 2.31995 21.3801C2.6068 21.6669 3.03327 21.7741 3.42705 21.6473L7.08231 20.4703C8.53736 21.2763 10.175 21.7 11.85 21.7C17.2937 21.7 21.7 17.2944 21.7 11.85C21.7 6.40632 17.2944 2 11.85 2ZM11.85 19.8656C10.3449 19.8656 8.87775 19.4457 7.60719 18.6512C7.42439 18.5369 7.19739 18.5061 6.98618 18.574L4.24226 19.4577L5.12593 16.7138C5.1929 16.5056 5.16463 16.2783 5.04867 16.0928C4.2543 14.8222 3.83435 13.3551 3.83435 11.85C3.83435 7.43021 7.43019 3.83437 11.85 3.83437C16.2698 3.83437 19.8656 7.43021 19.8656 11.85C19.8656 16.2698 16.2698 19.8656 11.85 19.8656ZM7 10C7 9.44772 7.44772 9 8 9H16C16.5523 9 17 9.44772 17 10C17 10.5523 16.5523 11 16 11H8C7.44772 11 7 10.5523 7 10ZM8 13C7.44772 13 7 13.4477 7 14C7 14.5523 7.44772 15 8 15H12C12.5523 15 13 14.5523 13 14C13 13.4477 12.5523 13 12 13H8Z" fill="black"/>
<circle cx="19" cy="5" r="4" fill="#FF2517"/>
</svg>
