<svg width="24" height="24" viewBox="0 0 24 24" fill="none" xmlns="http://www.w3.org/2000/svg">
<path fill-rule="evenodd" clip-rule="evenodd" d="M10.8904 13.8368L15.7974 8.9568C16.189 8.56736 16.8222 8.5691 17.2116 8.96071C17.6011 9.35231 17.5993 9.98547 17.2077 10.3749L11.5966 15.9551C11.5949 15.9568 11.5933 15.9584 11.5917 15.9601C11.405 16.1457 11.1634 16.2425 10.9195 16.2505C10.8436 16.253 10.7675 16.2469 10.6928 16.2322C10.5038 16.1951 10.3235 16.103 10.1774 15.9562C10.1759 15.9547 10.1745 15.9532 10.173 15.9517L6.80448 12.5645C6.41503 12.1729 6.41678 11.5398 6.80838 11.1503C7.19999 10.7609 7.83315 10.7626 8.22259 11.1542L10.8904 13.8368Z" fill="black"/>
</svg>
