<svg width="24" height="24" viewBox="0 0 24 24" fill="none" xmlns="http://www.w3.org/2000/svg">
<path d="M12 3C9.37276 3 7.14187 4.68776 6.32872 7.03716C3.33079 7.37103 1 9.91322 1 13C1 16.2919 3.65091 18.9645 6.93465 18.9997C6.95998 18.9999 8.48856 19 8.5 19C9.05228 19 9.5 18.5523 9.5 18C9.5 17.4477 9.05228 17 8.5 17L7.01704 16.9998C6.97634 16.9998 6.95606 16.9998 6.95606 16.9998C4.76729 16.9763 3 15.1945 3 13C3 10.817 4.74887 9.04231 6.92162 9.00075C7.22005 8.99504 7.52093 8.88261 7.75536 8.66247C7.93824 8.49075 8.05854 8.27394 8.1141 8.04654C8.54146 6.29728 10.1205 5 12 5C13.8736 5 15.4486 6.28908 15.8818 8.03005C15.9322 8.23263 16.0333 8.42881 16.1864 8.59349C16.4311 8.85681 16.7645 8.99334 17.0961 9.00113C19.2606 9.05193 21 10.823 21 13C21 15.1945 19.2327 16.9763 17.044 16.9998C17.044 16.9998 17.0222 16.9998 16.9788 16.9998L15.5 17C14.9477 17 14.5 17.4477 14.5 18C14.5 18.5523 14.9477 19 15.5 19C15.5114 19 17.04 18.9999 17.0654 18.9997C20.3491 18.9645 23 16.2919 23 13C23 9.91322 20.6692 7.37106 17.6713 7.03717C16.8581 4.6878 14.6273 3 12 3Z" fill="black"/>
<path d="M8.46452 13.7071C8.85505 14.0976 9.48822 14.0976 9.87873 13.7071L11 12.5858V20C11 20.5523 11.4478 21 12 21C12.5523 21 13 20.5523 13 20V12.5858L14.1214 13.7071C14.5119 14.0976 15.145 14.0976 15.5356 13.7071C15.9261 13.3166 15.9261 12.6834 15.5356 12.2929L12.7072 9.46447L12.698 9.4554C12.6848 9.44254 12.6713 9.43013 12.6576 9.41815C12.6364 9.39955 12.6145 9.38201 12.5921 9.36552C12.2008 9.07733 11.6471 9.1103 11.2929 9.46446L11.2881 9.46937L8.46452 12.2929C8.074 12.6834 8.074 13.3166 8.46452 13.7071Z" fill="black"/>
</svg>
