<svg width="24" height="24" viewBox="0 0 24 24" fill="none" xmlns="http://www.w3.org/2000/svg">
<path fill-rule="evenodd" clip-rule="evenodd" d="M7 19V7H7.81958H16.1805H17V19C17 19.5523 16.5523 20 16 20H8C7.44772 20 7 19.5523 7 19ZM19 7V19C19 20.6569 17.6569 22 16 22H8C6.34315 22 5 20.6569 5 19V7H4.5C3.94772 7 3.5 6.55228 3.5 6C3.5 5.44772 3.94772 5 4.5 5H5H8.15291L8.23511 4.5068C8.47621 3.06024 9.72778 2 11.1943 2H12.8058C14.2723 2 15.5239 3.06024 15.765 4.5068L15.8472 5H19H19.5C20.0523 5 20.5 5.44772 20.5 6C20.5 6.55228 20.0523 7 19.5 7H19ZM13.8196 5L13.7922 4.8356C13.7118 4.35341 13.2946 4 12.8058 4H11.1943C10.7055 4 10.2883 4.35341 10.2079 4.8356L10.1805 5H13.8196ZM10 17C10.5523 17 11 16.5523 11 16L11 11C11 10.4477 10.5523 10 10 10C9.44772 10 9 10.4477 9 11L9 16C9 16.5523 9.44772 17 10 17ZM15 16C15 16.5523 14.5523 17 14 17C13.4477 17 13 16.5523 13 16V11C13 10.4477 13.4477 10 14 10C14.5523 10 15 10.4477 15 11V16Z" fill="black"/>
</svg>
