<svg width="24" height="24" viewBox="0 0 24 24" fill="none" xmlns="http://www.w3.org/2000/svg">
<path fill-rule="evenodd" clip-rule="evenodd" d="M10.9845 3.78708C11.4074 2.83849 12.7538 2.83849 13.1766 3.78708L15.163 8.24337L20.015 8.75547C21.0479 8.86448 21.4639 10.145 20.6924 10.8403L17.0681 14.1065L18.0804 18.8793C18.2959 19.8953 17.2066 20.6867 16.307 20.1678L12.0806 17.7301L7.85422 20.1678C6.95458 20.6867 5.8653 19.8953 6.08079 18.8793L7.09311 14.1065L3.46875 10.8403C2.69725 10.145 3.11332 8.86448 4.14614 8.75547L8.99816 8.24337L10.9845 3.78708ZM12.0806 6.24059L10.637 9.47908C10.4626 9.87032 10.0929 10.1389 9.66695 10.1839L6.14088 10.556L8.77478 12.9297C9.09298 13.2165 9.2342 13.6511 9.14532 14.0701L8.40965 17.5386L11.481 15.7671C11.8521 15.5531 12.3091 15.5531 12.6801 15.7671L15.7515 17.5386L15.0159 14.0701C14.927 13.6511 15.0682 13.2165 15.3864 12.9297L18.0203 10.556L14.4942 10.1839C14.0683 10.1389 13.6985 9.87032 13.5241 9.47908L12.0806 6.24059Z" fill="black"/>
</svg>
