<svg width="24" height="24" viewBox="0 0 24 24" fill="none" xmlns="http://www.w3.org/2000/svg">
<path fill-rule="evenodd" clip-rule="evenodd" d="M7 9V4H17V9C17 11.7614 14.7614 14 12 14C9.23858 14 7 11.7614 7 9ZM5 2.66667C5 2.29848 5.29848 2 5.66667 2H18.3333C18.7015 2 19 2.29848 19 2.66667V4C20.6569 4 22 5.34315 22 7V8C22 9.65685 20.6569 11 19 11H18.7101C18.1409 12.9125 16.7764 14.4825 15 15.3264V17C16.6569 17 18 18.3431 18 20V21C18 21.5523 17.5523 22 17 22H7C6.44772 22 6 21.5523 6 21V20C6 18.3431 7.34315 17 9 17V15.3264C7.22364 14.4825 5.85908 12.9125 5.28988 11H5C3.34315 11 2 9.65685 2 8V7C2 5.34315 3.34315 4 5 4V2.66667ZM19 6V9C19.5523 9 20 8.55228 20 8V7C20 6.44771 19.5523 6 19 6ZM5 9L5 6C4.44772 6 4 6.44771 4 7V8C4 8.55228 4.44772 9 5 9ZM15 19H13H11H9C8.44772 19 8 19.4477 8 20H16C16 19.4477 15.5523 19 15 19ZM13 17V15.9291C12.6734 15.9758 12.3395 16 12 16C11.6605 16 11.3266 15.9758 11 15.9291V17H13Z" fill="black"/>
</svg>
