<svg width="24" height="24" viewBox="0 0 24 24" fill="none" xmlns="http://www.w3.org/2000/svg">
<path d="M16.9497 7.05025C16.5592 6.65973 15.926 6.65973 15.5355 7.05025L12 10.5858L8.46443 7.05025C8.07391 6.65973 7.44074 6.65973 7.05022 7.05025C6.65969 7.44078 6.65969 8.07394 7.05022 8.46447L10.5858 12L7.05022 15.5355C6.65969 15.9261 6.65969 16.5592 7.05022 16.9497C7.44074 17.3403 8.07391 17.3403 8.46443 16.9497L12 13.4142L15.5355 16.9497C15.926 17.3403 16.5592 17.3403 16.9497 16.9497C17.3402 16.5592 17.3402 15.9261 16.9497 15.5355L13.4142 12L16.9497 8.46447C17.3402 8.07394 17.3402 7.44078 16.9497 7.05025Z" fill="black"/>
</svg>
