<svg width="24" height="24" viewBox="0 0 24 24" fill="none" xmlns="http://www.w3.org/2000/svg">
<path fill-rule="evenodd" clip-rule="evenodd" d="M4.5 6C4.22386 6 4 5.77614 4 5.5C4 5.22386 4.22386 5 4.5 5C4.77614 5 5 5.22386 5 5.5C5 5.77614 4.77614 6 4.5 6ZM2 5.5C2 4.11929 3.11929 3 4.5 3C5.88071 3 7 4.11929 7 5.5C7 6.88071 5.88071 8 4.5 8C3.11929 8 2 6.88071 2 5.5ZM10.5 5H19.5C19.7761 5 20 5.22386 20 5.5C20 5.77614 19.7761 6 19.5 6H10.5C10.2239 6 10 5.77614 10 5.5C10 5.22386 10.2239 5 10.5 5ZM8 5.5C8 4.11929 9.11929 3 10.5 3H19.5C20.8807 3 22 4.11929 22 5.5C22 6.88071 20.8807 8 19.5 8H10.5C9.11929 8 8 6.88071 8 5.5ZM10.5 12H19.5C19.7761 12 20 12.2239 20 12.5C20 12.7761 19.7761 13 19.5 13H10.5C10.2239 13 10 12.7761 10 12.5C10 12.2239 10.2239 12 10.5 12ZM8 12.5C8 11.1193 9.11929 10 10.5 10H19.5C20.8807 10 22 11.1193 22 12.5C22 13.8807 20.8807 15 19.5 15H10.5C9.11929 15 8 13.8807 8 12.5ZM19.5 19H10.5C10.2239 19 10 19.2239 10 19.5C10 19.7761 10.2239 20 10.5 20H19.5C19.7761 20 20 19.7761 20 19.5C20 19.2239 19.7761 19 19.5 19ZM10.5 17C9.11929 17 8 18.1193 8 19.5C8 20.8807 9.11929 22 10.5 22H19.5C20.8807 22 22 20.8807 22 19.5C22 18.1193 20.8807 17 19.5 17H10.5ZM4 12.5C4 12.7761 4.22386 13 4.5 13C4.77614 13 5 12.7761 5 12.5C5 12.2239 4.77614 12 4.5 12C4.22386 12 4 12.2239 4 12.5ZM4.5 10C3.11929 10 2 11.1193 2 12.5C2 13.8807 3.11929 15 4.5 15C5.88071 15 7 13.8807 7 12.5C7 11.1193 5.88071 10 4.5 10ZM4.5 20C4.22386 20 4 19.7761 4 19.5C4 19.2239 4.22386 19 4.5 19C4.77614 19 5 19.2239 5 19.5C5 19.7761 4.77614 20 4.5 20ZM2 19.5C2 18.1193 3.11929 17 4.5 17C5.88071 17 7 18.1193 7 19.5C7 20.8807 5.88071 22 4.5 22C3.11929 22 2 20.8807 2 19.5Z" fill="black"/>
</svg>
