<svg width="24" height="24" viewBox="0 0 24 24" fill="none" xmlns="http://www.w3.org/2000/svg">
<path fill-rule="evenodd" clip-rule="evenodd" d="M15 9.5C15 12.5376 12.5376 15 9.5 15C6.46243 15 4 12.5376 4 9.5C4 6.46243 6.46243 4 9.5 4C12.5376 4 15 6.46243 15 9.5ZM14.058 15.4565C12.7948 16.4247 11.2146 17 9.5 17C5.35786 17 2 13.6421 2 9.5C2 5.35786 5.35786 2 9.5 2C13.6421 2 17 5.35786 17 9.5C17 11.2146 16.4246 12.7948 15.4565 14.0581C15.4963 14.0875 15.5344 14.1202 15.5704 14.1563L20.3639 18.9497C20.7544 19.3403 20.7544 19.9734 20.3639 20.364C19.9734 20.7545 19.3402 20.7545 18.9497 20.364L14.1562 15.5705C14.1202 15.5344 14.0874 15.4963 14.058 15.4565Z" fill="black"/>
</svg>
