<svg width="24" height="24" viewBox="0 0 24 24" fill="none" xmlns="http://www.w3.org/2000/svg">
<path fill-rule="evenodd" clip-rule="evenodd" d="M15 8C15 9.65685 13.6569 11 12 11C10.3431 11 9 9.65685 9 8C9 6.34315 10.3431 5 12 5C13.6569 5 15 6.34315 15 8ZM17 8C17 10.7614 14.7614 13 12 13C9.23858 13 7 10.7614 7 8C7 5.23858 9.23858 3 12 3C14.7614 3 17 5.23858 17 8ZM9 14C6.23858 14 4 16.2386 4 19C4 20.6569 5.34315 22 7 22H14.0833C14.6356 22 15.0833 21.5523 15.0833 21C15.0833 20.4477 14.6356 20 14.0833 20H7C6.44772 20 6 19.5523 6 19C6 17.3431 7.34315 16 9 16H15C16.6569 16 18 17.3431 18 19V21C18 21.5523 18.4477 22 19 22C19.5523 22 20 21.5523 20 21V19C20 16.2386 17.7614 14 15 14H9Z" fill="black"/>
</svg>
