<svg width="24" height="24" viewBox="0 0 24 24" fill="none" xmlns="http://www.w3.org/2000/svg">
<path fill-rule="evenodd" clip-rule="evenodd" d="M18 3.5C17.5643 3.5 17.161 3.63938 16.8325 3.87598L16.8608 3.87816C18.3361 3.99165 19.5084 5.1639 19.6219 6.63924L19.6461 6.95498C20.4218 6.77549 21 6.08027 21 5.25C21 4.2835 20.2165 3.5 19.25 3.5H18ZM11.4546 5.46821L14 5.66401V6.88304C13.8964 6.95086 13.7982 7.03029 13.7071 7.12132C12.9931 7.83537 12.9931 8.99306 13.7071 9.70711C14.4212 10.4212 15.5789 10.4212 16.2929 9.70711C17.007 8.99306 17.007 7.83537 16.2929 7.12132C16.2019 7.03029 16.1037 6.95086 16 6.88304V5.81786L16.7074 5.87227C17.1992 5.9101 17.5899 6.30085 17.6277 6.79263L18.0318 12.0454C18.0542 12.3365 17.9483 12.6228 17.7419 12.8292L10.2322 20.3388C9.84172 20.7294 9.20856 20.7294 8.81803 20.3388L3.16118 14.682C2.77066 14.2915 2.77066 13.6583 3.16118 13.2678L10.6708 5.75816C10.8772 5.55173 11.1635 5.44582 11.4546 5.46821ZM18 1.5C16.4418 1.5 15.0917 2.39099 14.4314 3.69128L11.608 3.4741C10.7348 3.40693 9.87584 3.72468 9.25658 4.34394L1.74697 11.8536C0.575393 13.0251 0.575393 14.9246 1.74697 16.0962L7.40382 21.753C8.57539 22.9246 10.4749 22.9246 11.6465 21.753L19.1561 14.2434C19.7753 13.6242 20.0931 12.7652 20.0259 11.892L19.8004 8.9599C21.6105 8.69369 23 7.13411 23 5.25C23 3.17893 21.3211 1.5 19.25 1.5H18ZM8.65425 12.8311L9.41902 12.0663C9.94696 11.5384 10.8029 11.5384 11.3309 12.0663C11.8588 12.5942 11.8588 13.4502 11.3309 13.9781L10.5661 14.7429C10.0381 15.2708 9.18219 15.2708 8.65425 14.7429C8.12631 14.2149 8.12631 13.359 8.65425 12.8311ZM7.24004 16.1571C5.93105 14.8481 5.93105 12.7258 7.24004 11.4168L8.0048 10.6521C9.31379 9.34309 11.4361 9.34309 12.7451 10.6521C14.0541 11.9611 14.0541 14.0833 12.7451 15.3923L11.9803 16.1571C10.6713 17.4661 8.54902 17.4661 7.24004 16.1571Z" fill="black"/>
</svg>
