<svg width="28" height="28" viewBox="0 0 28 28" fill="none" xmlns="http://www.w3.org/2000/svg">
<circle cx="14" cy="14" r="13" fill="white" stroke="#959595" stroke-width="2"/>
<path fill-rule="evenodd" clip-rule="evenodd" d="M21 9C21 8.44772 20.5523 8 20 8H8C7.44772 8 7 8.44772 7 9C7 9.55228 7.44772 10 8 10L20 10C20.5523 10 21 9.55229 21 9ZM20 13C20.5523 13 21 13.4477 21 14C21 14.5523 20.5523 15 20 15L8 15C7.44772 15 7 14.5523 7 14C7 13.4477 7.44772 13 8 13L20 13ZM16 18C16.5523 18 17 18.4477 17 19C17 19.5523 16.5523 20 16 20H8C7.44772 20 7 19.5523 7 19C7 18.4477 7.44772 18 8 18H16Z" fill="#959595"/>
</svg>
