<svg width="24" height="24" viewBox="0 0 24 24" fill="none" xmlns="http://www.w3.org/2000/svg">
<path fill-rule="evenodd" clip-rule="evenodd" d="M19 7C19 6.44772 18.5523 6 18 6H6C5.44772 6 5 6.44772 5 7C5 7.55228 5.44772 8 6 8L18 8C18.5523 8 19 7.55229 19 7ZM18 11C18.5523 11 19 11.4477 19 12C19 12.5523 18.5523 13 18 13L6 13C5.44772 13 5 12.5523 5 12C5 11.4477 5.44772 11 6 11L18 11ZM14 16C14.5523 16 15 16.4477 15 17C15 17.5523 14.5523 18 14 18H6C5.44772 18 5 17.5523 5 17C5 16.4477 5.44772 16 6 16H14Z" fill="black"/>
</svg>
