<svg width="24" height="24" viewBox="0 0 24 24" fill="none" xmlns="http://www.w3.org/2000/svg">
<path fill-rule="evenodd" clip-rule="evenodd" d="M5 3C3.34314 3 2 4.34315 2 6V18C2 19.6569 3.34315 21 5 21H19C20.6569 21 22 19.6569 22 18V17V11V10.1739C22 8.51706 20.6569 7.17391 19 7.17391H17.8462V6C17.8462 4.34315 16.503 3 14.8462 3H5ZM20 11V10.1739C20 9.62163 19.5523 9.17391 19 9.17391H5C4.64936 9.17391 4.31278 9.11376 4 9.00321V18C4 18.5523 4.44772 19 5 19H19C19.5523 19 20 18.5523 20 18V17H17C15.3431 17 14 15.6569 14 14C14 12.3431 15.3431 11 17 11H20ZM20 15V13H17C16.4477 13 16 13.4477 16 14C16 14.5523 16.4477 15 17 15H20ZM5 7.17391C4.44772 7.17391 4 6.7262 4 6.17391V6C4 5.44771 4.44771 5 5 5H14.8462C15.3984 5 15.8462 5.44772 15.8462 6V7.17391H5Z" fill="black"/>
</svg>
