<svg width="24" height="24" viewBox="0 0 24 24" fill="none" xmlns="http://www.w3.org/2000/svg">
<path fill-rule="evenodd" clip-rule="evenodd" d="M9.94973 7.05027C9.55921 7.44079 9.55921 8.07396 9.94973 8.46448L13.4853 12L9.94975 15.5355C9.55922 15.9261 9.55922 16.5592 9.94975 16.9497C10.3403 17.3403 10.9734 17.3403 11.364 16.9497L15.6066 12.7071L15.6066 12.7071C15.6096 12.7041 15.6127 12.701 15.6157 12.6979C15.6602 12.6522 15.6996 12.6033 15.7337 12.5519C15.9911 12.1636 15.9488 11.6351 15.6066 11.2929C15.6051 11.2914 15.6037 11.29 15.6022 11.2885L11.3639 7.05027C10.9734 6.65974 10.3403 6.65974 9.94973 7.05027Z" fill="black"/>
<path fill-rule="evenodd" clip-rule="evenodd" d="M9.94973 7.05027C9.55921 7.44079 9.55921 8.07396 9.94973 8.46448L13.4853 12L9.94975 15.5355C9.55922 15.9261 9.55922 16.5592 9.94975 16.9497C10.3403 17.3403 10.9734 17.3403 11.364 16.9497L15.6066 12.7071L15.6066 12.7071C15.6096 12.7041 15.6127 12.701 15.6157 12.6979C15.6602 12.6522 15.6996 12.6033 15.7337 12.5519C15.9911 12.1636 15.9488 11.6351 15.6066 11.2929C15.6051 11.2914 15.6037 11.29 15.6022 11.2885L11.3639 7.05027C10.9734 6.65974 10.3403 6.65974 9.94973 7.05027Z" fill="black"/>
</svg>
