<svg width="24" height="24" viewBox="0 0 24 24" fill="none" xmlns="http://www.w3.org/2000/svg">
<path fill-rule="evenodd" clip-rule="evenodd" d="M12.5 4C9.49736 4 7.0567 6.40614 7.00097 9.39546C7.60404 9.80658 8 10.499 8 11.284V14.716C8 15.9774 6.97744 17 5.71605 17C4.21602 17 3 15.784 3 14.284V11.716C3 10.4599 3.85273 9.40295 5.01089 9.09244C5.22255 5.13983 8.4946 2 12.5 2C16.5054 2 19.7774 5.13983 19.9891 9.09244C21.1473 9.40295 22 10.4599 22 11.716V14.284C22 15.5416 21.1453 16.5995 19.985 16.9086C19.776 19.7553 17.4002 21.9999 14.5002 22C14.0441 22.6072 13.3179 23 12.5 23C11.1193 23 10 21.8807 10 20.5C10 19.1193 11.1193 18 12.5 18C13.6996 18 14.7019 18.8449 14.9442 19.9721C16.6338 19.7581 17.9478 18.3396 17.9985 16.6042C17.3957 16.193 17 15.5007 17 14.716V11.284C17 10.499 17.396 9.80658 17.999 9.39546C17.9433 6.40614 15.5026 4 12.5 4ZM19.284 11C19.1271 11 19 11.1271 19 11.284V14.716C19 14.8729 19.1271 15 19.284 15C19.6794 15 20 14.6794 20 14.284V11.716C20 11.3206 19.6794 11 19.284 11ZM5 11.716C5 11.3206 5.32059 11 5.71605 11C5.87287 11 6 11.1271 6 11.284V14.716C6 14.8729 5.87287 15 5.71605 15C5.32059 15 5 14.6794 5 14.284V11.716ZM12.5 21C12.7761 21 13 20.7761 13 20.5C13 20.2239 12.7761 20 12.5 20C12.2239 20 12 20.2239 12 20.5C12 20.7761 12.2239 21 12.5 21Z" fill="black"/>
</svg>
