<svg width="24" height="24" viewBox="0 0 24 24" fill="none" xmlns="http://www.w3.org/2000/svg">
<path fill-rule="evenodd" clip-rule="evenodd" d="M14 3H10V5H14V3ZM10 1C8.89543 1 8 1.89543 8 3H6.5C5.39543 3 4.5 3.89543 4.5 5V20C4.5 21.1046 5.39543 22 6.5 22H17.5C18.6046 22 19.5 21.1046 19.5 20V5C19.5 3.89543 18.6046 3 17.5 3L16 3C16 1.89543 15.1046 1 14 1H10ZM14 7C15.1046 7 16 6.10457 16 5H17.5V20H6.5L6.5 5H8C8 6.10457 8.89543 7 10 7H14ZM15.4814 11.6803C15.8571 11.2755 15.8335 10.6427 15.4287 10.267C15.0239 9.89133 14.3912 9.91492 14.0155 10.3197L11.4731 13.0589L10.2071 11.7929C9.81658 11.4024 9.18342 11.4024 8.79289 11.7929C8.40237 12.1834 8.40237 12.8166 8.79289 13.2071L10.6461 15.0603C11.1271 15.5413 11.9114 15.5267 12.3742 15.0281L15.4814 11.6803Z" fill="black"/>
</svg>
