<svg width="24" height="24" viewBox="0 0 24 24" fill="none" xmlns="http://www.w3.org/2000/svg">
<path fill-rule="evenodd" clip-rule="evenodd" d="M14 3H10V5H14V3ZM10 1C8.89543 1 8 1.89543 8 3H6.5C5.39543 3 4.5 3.89543 4.5 5V20C4.5 21.1046 5.39543 22 6.5 22H17.5C18.6046 22 19.5 21.1046 19.5 20V5C19.5 3.89543 18.6046 3 17.5 3L16 3C16 1.89543 15.1046 1 14 1H10ZM14 7C15.1046 7 16 6.10457 16 5H17.5V20H6.5L6.5 5H8C8 6.10457 8.89543 7 10 7H14ZM8 11.8279C8 14.0186 9.79391 15.8 12 15.8C14.2061 15.8 16.0023 14.0163 16 11.8279C16 11.3721 15.6253 11 15.1663 11C14.7073 11 14.3326 11.3698 14.3326 11.8279C14.3326 13.1047 13.2857 14.1442 12 14.1442C10.7143 14.1442 9.66745 13.1047 9.66745 11.8279C9.66745 11.3721 9.29274 11 8.83372 11C8.37471 11 8 11.3698 8 11.8279Z" fill="black"/>
</svg>
